<?xml version="1.0" standalone="no"?>
<!DOCTYPE svg PUBLIC "-//W3C//DTD SVG 1.1//EN" "http://www.w3.org/Graphics/SVG/1.1/DTD/svg11.dtd" >
<svg xmlns="http://www.w3.org/2000/svg">
<metadata>
Created by FontForge 20120731 at Wed Sep  7 09:47:06 2016
 By admin
</metadata>
<defs>
<font id="iconfont" horiz-adv-x="1024" >
  <font-face 
    font-family="iconfont"
    font-weight="500"
    font-stretch="normal"
    units-per-em="1024"
    panose-1="2 0 6 3 0 0 0 0 0 0"
    ascent="896"
    descent="-128"
    x-height="792"
    bbox="0 -212 1025 896.565"
    underline-thickness="50"
    underline-position="-100"
    unicode-range="U+0078-E637"
  />
<missing-glyph horiz-adv-x="374" 
d="M34 0v682h272v-682h-272zM68 34h204v614h-204v-614z" />
    <glyph glyph-name=".notdef" horiz-adv-x="374" 
d="M34 0v682h272v-682h-272zM68 34h204v614h-204v-614z" />
    <glyph glyph-name=".null" horiz-adv-x="0" 
 />
    <glyph glyph-name="nonmarkingreturn" horiz-adv-x="341" 
 />
    <glyph glyph-name="x" unicode="x" horiz-adv-x="1001" 
d="M281 543q-27 -1 -53 -1h-83q-18 0 -36.5 -6t-32.5 -18.5t-23 -32t-9 -45.5v-76h912v41q0 16 -0.5 30t-0.5 18q0 13 -5 29t-17 29.5t-31.5 22.5t-49.5 9h-133v-97h-438v97zM955 310v-52q0 -23 0.5 -52t0.5 -58t-10.5 -47.5t-26 -30t-33 -16t-31.5 -4.5q-14 -1 -29.5 -0.5
t-29.5 0.5h-32l-45 128h-439l-44 -128h-29h-34q-20 0 -45 1q-25 0 -41 9.5t-25.5 23t-13.5 29.5t-4 30v167h911zM163 247q-12 0 -21 -8.5t-9 -21.5t9 -21.5t21 -8.5q13 0 22 8.5t9 21.5t-9 21.5t-22 8.5zM316 123q-8 -26 -14 -48q-5 -19 -10.5 -37t-7.5 -25t-3 -15t1 -14.5
t9.5 -10.5t21.5 -4h37h67h81h80h64h36q23 0 34 12t2 38q-5 13 -9.5 30.5t-9.5 34.5q-5 19 -11 39h-368zM336 498v228q0 11 2.5 23t10 21.5t20.5 15.5t34 6h188q31 0 51.5 -14.5t20.5 -52.5v-227h-327z" />
    <glyph glyph-name="uniE600" unicode="&#xe600;" 
d="M767 42h-512v643h512v-643zM303 90h416v547h-416v-547v0zM554 -37.5q0 -16.5 -11.5 -28t-28 -11.5t-28 11.5t-11.5 28t11.5 28t28 11.5t28 -11.5t11.5 -28zM766 -167h-509q-34 0 -58 24t-24 58v769q0 34 24 58t58 24h509q34 0 58 -24t24 -58v-769q0 -34 -24 -58t-58 -24z
M257 718q-14 0 -24 -10t-10 -24v-769q0 -14 10 -24t24 -10h509q14 0 23.5 10t9.5 24v769q0 14 -9.5 24t-23.5 10h-509zM257 718z" />
    <glyph glyph-name="uniE601" unicode="&#xe601;" 
d="M672 -180h-345q-13 0 -22.5 9.5t-9.5 22.5v310q0 13 9.5 22.5t22.5 9.5h345q13 0 22.5 -9.5t9.5 -22.5v-310q0 -13 -9.5 -22.5t-22.5 -9.5zM359 -116h281v246h-281v-246zM637.5 130q-13.5 0 -22.5 9.5t-9 22.5v140h-212v-140q0 -13 -9.5 -22.5t-22.5 -9.5t-22.5 9.5
t-9.5 22.5v172q0 14 9.5 23t22.5 9h276q13 0 22.5 -9t9.5 -23v-172q0 -13 -9.5 -22.5t-23 -9.5zM603 302q-13 0 -22.5 9.5t-9.5 22.5v378q-29 -7 -55 -26.5t-44 -44.5t-27.5 -41.5t-16.5 -30.5v-140q0 -13 -9 -22.5t-22.5 -9.5t-23 9.5t-9.5 22.5v147q0 6 3 12q3 9 10 23.5
t28.5 46.5t47 57t66 45t84.5 20q13 0 22.5 -9.5t9.5 -22.5v-414q0 -13 -9.5 -22.5t-22.5 -9.5z" />
    <glyph glyph-name="uniE602" unicode="&#xe602;" 
d="M719 -145h-416q-46 0 -78.5 32.5t-32.5 79.5v671q0 46 32.5 79t78.5 33h416q46 0 78.5 -33t32.5 -79v-671q0 -47 -32.5 -79.5t-78.5 -32.5zM775 638q0 23 -16.5 39.5t-39.5 16.5h-416q-23 0 -39 -16.5t-16 -39.5v-28h527v28zM775 554h-527v-447h527v447zM775 51h-527v-84
q0 -24 16 -40t39 -16h416q23 0 39.5 16t16.5 40v84zM511 -61q-17 0 -29.5 12t-12.5 29.5t12.5 30t29.5 12.5t29.5 -12.5t12.5 -30t-12.5 -29.5t-29.5 -12z" />
    <glyph glyph-name="uniE603" unicode="&#xe603;" 
d="M694 -144h-368q-44 0 -75 32.5t-31 78.5v668q0 46 31 78.5t75 32.5h368q43 0 74 -32.5t31 -78.5v-668q0 -46 -31 -78.5t-74 -32.5v0zM687 699h-355q-22 0 -44.5 -23.5t-22.5 -46.5v-656q0 -23 22.5 -46.5t44.5 -23.5h355q22 0 44.5 23.5t22.5 46.5v656q0 3 -1 7.5
t-5.5 16.5t-11 21.5t-19.5 17t-30 7.5zM643 90h-267q-44 0 -44 47v445q0 47 44 47h267q44 0 44 -47v-445q0 -47 -44 -47zM643 582h-267v-445h267v445zM510 44q18 0 31 -14t13 -33.5t-13 -33t-31.5 -13.5t-31.5 13.5t-13 33.5q1 41 38 46z" />
    <glyph glyph-name="uniE604" unicode="&#xe604;" 
d="M902 -18l-35 389q-1 29 -17 52.5t-42 34.5q-1 57 -24.5 107.5t-65.5 89.5q-89 80 -214 80t-213 -80q-42 -39 -66 -89.5t-24 -107.5q-26 -11 -42.5 -34.5t-16.5 -52.5l-35 -390v-1q0 -39 28 -67t67 -29h605q39 1 67 29t28 67v1v1zM319 612q77 70 185.5 70t185.5 -70
q66 -60 69 -147h-505h-6q3 85 71 147zM192 368v2q0 18 13.5 32t32.5 14h28h426h79h3l1 -1q4 0 10 -3t11 -5l4 -2q17 -14 17 -35v-2l11 -113l-6 -4q-27 -26 -81 -53q-82 -40 -179 -50q-18 35 -57.5 35t-58.5 -35q-96 10 -175 48q-52 25 -78 51q-5 4 -11 6l-1 1l11 114v0z
M807 -66h-605q-18 0 -31.5 13.5t-14.5 31.5l20 215q31 -23 70 -43q89 -43 195 -54q7 -20 24 -33t39 -13t39.5 13t23.5 33q46 5 89 16q58 14 110 40q37 19 67 41l20 -215q-1 -18 -14.5 -31.5t-31.5 -13.5z" />
    <glyph glyph-name="uniE605" unicode="&#xe605;" 
d="M746.5 220.5q-1.5 40.5 -3.5 61.5q-3 24 -5.5 40.5t-7 29.5t-11 27t-16.5 34q-11 23 -25 45.5t-28 40.5q-15 22 -31 41h-204q-20 -26 -39 -54q-16 -25 -33.5 -54t-27.5 -57q-6 -16 -10 -25t-6.5 -18.5t-3.5 -22.5q-2 -13 -4 -36q-3 -26 -4 -71.5t0 -93.5q0 -48 3 -91
t8 -65t12 -36.5t17.5 -23.5t26.5 -14.5t40 -9.5q53 -10 117.5 -9t122.5 8q46 5 75 30.5t34 69.5q3 28 4 73.5t1 92.5t-1.5 87.5zM694 42q0 -43 -3 -70q-3 -23 -17 -35q-16 -14 -46 -18h-1q-55 -6 -116 -7h-11q-53 0 -97 8q-20 3 -32 7q-6 2 -9 5q-3 2 -5 6q-4 9 -7 25l-1 1
q-4 17 -6 56q-3 42 -4 88q0 48 1 92q1 43 4 67v1v1q2 22 3 34q1 9 2.5 15t3.5 12q5 10 11 26q9 24 24 49q16 28 32 51v1q11 15 22 31h151q7 -10 15 -20q12 -17 26 -38q12 -20 21.5 -40t15.5 -33q6 -11 9 -22q3 -9 6 -22q2 -14 5 -37q2 -19 3 -57q1 -40 1 -86t-1 -91z
M655.5 271q-2.5 28 -11 55.5t-23.5 44.5q-25 28 -51 19t-35 -52q-5 -21 -4.5 -44t4 -45.5t10 -42t14.5 -33.5q9 -14 21.5 -22t26 -7.5t25 9.5t18.5 28q4 13 6 37.5t-0.5 52.5zM618 221q-1 -19 -4 -28q-3 -8 -5 -10t-4 -2t-5 2q-4 3 -8 9q-6 11 -12 27t-9 35q-3 21 -3 41
q-1 18 3 34q5 23 11 25h1q4 -1 10 -8q10 -11 16 -31q7 -24 9 -48t0 -46zM616.5 661q-6.5 5 -16.5 5h-24l-1 63q1 14 -5.5 20.5t-22.5 6.5h-64q-15 0 -20.5 -7.5t-5.5 -19.5v-63h-13q-18 1 -24.5 -3.5t-6.5 -20.5v-30q0 -20 10.5 -23.5t30.5 -3.5h28q19 0 41.5 0.5t39.5 0.5
h22q22 -1 30 3t8 20v36q0 11 -6.5 16zM589 620h-3h-1h-22h-40q-22 -1 -41 -1h-28h-7v13h43v90h51l2 -90h46v-12z" />
    <glyph glyph-name="uniE606" unicode="&#xe606;" 
d="M872 3l-32 351q-1 27 -15.5 48t-38.5 31q0 104 -81 178q-80 73 -193 73t-193 -73q-81 -73 -81 -178q-24 -10 -38.5 -31t-15.5 -48l-32 -352v-1q0 -36 25.5 -61t61.5 -25h546q36 0 61.5 25t25.5 61v1v1zM345 573q69 63 167 63t167 -63q60 -55 63 -133h-457h-5q3 77 65 133
zM229 352v1q0 17 12.5 29.5t29.5 12.5h26h384h72q1 0 3 -1h1q3 0 8.5 -2.5t9.5 -4.5l4 -2q16 -12 16 -32v-1l9 -102l-4 -4q-26 -24 -74 -48q-74 -36 -162 -45q-17 32 -52.5 32t-51.5 -32q-87 9 -159 43q-48 23 -71 46q-4 4 -9 6q-1 0 -1 1l9 103v0v0zM785 -41h-546
q-17 0 -29 12t-13 29l18 195q28 -22 64 -39q79 -40 176 -49q6 -18 21.5 -30t35.5 -12t35.5 12t21.5 30q41 4 80 14q52 13 99 37q34 16 61 36l18 -194q-1 -17 -13 -29t-29 -12z" />
    <glyph glyph-name="uniE607" unicode="&#xe607;" 
d="M900 -22q-29 47 -108 176t-121 199q14 30 41.5 87.5t40.5 84.5q9 19 -4 35q-35 45 -31 159q1 11 -7.5 19.5t-20.5 8.5h-102q-9 0 -17.5 -6t-10.5 -15q-10 -62 -45 -76q-26 -10 -42 14.5t-18 54.5q0 12 -8 20t-20 8h-97q-13 1 -23.5 -6t-10.5 -22q-5 -116 -34 -152
q-15 -19 -8 -35q14 -31 38.5 -89.5t36.5 -86.5q-106 -184 -187 -332q-3 -5 -9 -15.5t-8 -15t-5.5 -13t-4 -14.5t1 -14.5t6.5 -16.5q11 -22 33 -40t46 -28q49 -17 83.5 -6.5t67.5 48.5q16 14 30 14t33 -10.5t34.5 -23.5t34.5 -23t32 -10q29 0 76 31t62 36q9 3 21 -4.5t26 -22
t16 -16.5q30 -23 69 -16q32 6 64.5 30.5t49.5 54.5q8 14 -1 29zM493 592q43 -3 74.5 25t43.5 73h50q1 -95 36 -153q-11 -22 -35 -74t-37 -80h-238q-5 13 -16.5 36t-12.5 24q-8 19 -23 53.5t-21 46.5q32 51 38 147h50q9 -40 32 -68t59 -30zM801 -66q-16 -11 -29.5 -11
t-20 4.5t-19.5 16.5t-22 19q-14 9 -29.5 13t-26.5 4t-28.5 -7.5t-25 -11.5t-27.5 -16t-26 -15q-1 -1 -8 -5.5t-9.5 -6t-10 -4t-9.5 0.5q-7 4 -14.5 9t-17.5 13t-13 11q-51 39 -99 30q-38 -8 -72 -48q-18 -20 -41.5 -18t-45 15.5t-35.5 33.5q24 43 65.5 116t76.5 134t67 114
h241q3 -6 26 -44q35 -58 98.5 -165.5t90.5 -151.5q-12 -16 -36 -30z" />
    <glyph glyph-name="uniE608" unicode="&#xe608;" 
d="M896 448l-131 162v128q0 13 -10 22.5t-25 9.5h-428q-15 0 -25 -9.5t-10 -22.5v-127l-138 -151q-9 -9 -9 -21v-577q0 -13 10.5 -22.5t25.5 -9.5h712q15 0 25.5 9.5t10.5 22.5v567q0 11 -8 19zM695 705v-87h-358v87h358zM191 419h282q9 0 15 6t6 14t-6 14t-15 6h-253
l109 118q0 1 1 1v1h359l-112 -129q-8 -9 -8 -21v-534h-378v524zM833 -105h-194v522l100 116l94 -115v-523z" />
    <glyph glyph-name="uniE609" unicode="&#xe609;" 
d="M384 597q10 0 15.5 6t5.5 16v170q0 10 -5.5 16t-15.5 6t-15.5 -6t-5.5 -16v-170q0 -10 5.5 -16t15.5 -6zM298.5 597q9.5 0 15.5 6t6 16v170q0 10 -6 16t-15.5 6t-15.5 -6t-6 -16v-170q0 -10 6 -16t15.5 -6zM469.5 811q-9.5 0 -15.5 -6t-6 -16v-305q0 -17 -13 -30l-38 -38
l-13 -15v-17v-341q0 -18 -12.5 -30.5t-30 -12.5t-30 12.5t-12.5 30.5v341v17l-13 13l-39 38q-12 13 -12 30v307q0 10 -6 16t-15.5 6t-15.5 -6t-6 -16v-305q0 -37 26 -59l38 -41v-341q0 -36 25 -61t60.5 -25t60.5 25t25 61v341l38 38q26 26 26 60v307q0 10 -6 16t-15.5 6z
M811 811q-88 0 -151 -63t-63 -151v-341l86 -85v-128q0 -36 25 -61t60 -25t60 25t25 61v725q0 18 -12.5 30.5t-29.5 12.5zM811 43q0 -18 -12.5 -30.5t-30.5 -12.5t-30.5 12.5t-12.5 30.5v128v17l-12 13l-73 72v324q0 71 50 121t121 50v-725z" />
    <glyph glyph-name="uniE60A" unicode="&#xe60a;" 
d="M806 495h-58h-1v180q0 12 -8.5 20t-20.5 8h-413q-11 0 -19.5 -8t-8.5 -20v-180h-1h-63q-23 0 -40 -17t-17 -41v-320q0 -24 17 -41t40 -17h593q24 0 40.5 17t16.5 41v320q0 24 -16.5 41t-40.5 17zM333 647h357v-208v-6v-140h-356v144q0 1 -0.5 3l-0.5 2v2v2v201zM807 117
h-1h-593h-1v320q0 1 1 1h63q1 0 1 -1v-144q0 -24 17 -41t40 -17h356q23 0 40.5 17t17.5 41v144v1h58q1 0 1 -1v-320zM673 410q0 14 -10 23.5t-23 9.5h-259q-14 0 -24 -9.5t-10 -23.5v-73q0 -14 10 -23.5t24 -9.5h259q13 0 23 9.5t10 23.5v73zM395 395h230v-44h-230v44z" />
    <glyph glyph-name="uniE60B" unicode="&#xe60b;" 
d="M929 545l-142 175v139q0 15 -11 25.5t-27 10.5h-465q-16 0 -27 -10.5t-11 -25.5v-138l-150 -163q-9 -10 -9 -23v-626q0 -15 11 -25.5t27 -10.5h774q16 0 27 10.5t11 25.5v615q0 12 -8 21v0zM740 853v-114h-447v114h418h29zM144 514h326q9 0 15.5 6t6.5 15t-6.5 15
t-15.5 6h-304q128 140 129 141h409l-122 -151q-8 -9 -8 -22v-599h-430v589v0zM880 -75h-250v596l119 155l131 -154v-568v-29zM880 -75z" />
    <glyph glyph-name="uniE60C" unicode="&#xe60c;" 
d="M384 882v-310h-1h-38v310h-78v-310h-38v310h-78v-349q0 -32 23 -54.5t55 -22.5v-465v-77q0 -16 11 -27.5t27 -11.5h78q16 0 27.5 11.5t11.5 27.5v309h-1v233q33 0 55.5 22.5t22.5 54.5v-39v388h-77zM151 516v17v-17zM693 882q-48 0 -82 -34t-34 -82v-426h78v-32v-85v-232
v-77q0 -16 11 -27.5t27 -11.5h78q16 0 27 11.5t11 27.5v77v232v117v426q0 48 -34 82t-82 34z" />
    <glyph glyph-name="uniE60D" unicode="&#xe60d;" 
d="M612 135l-29 25q9 11 9 23q0 19 -23.5 34t-55.5 15t-55.5 -15t-23.5 -34q0 -11 8 -22l-30 -24q-17 21 -17 46q0 38 37 64q34 24 81 24t80 -24q37 -26 37 -64q0 -26 -18 -48zM427 122q-9 7 -15 15l30 24q4 -4 9 -8zM511.5 -62q-55.5 0 -95 39.5t-39.5 94.5t39.5 94.5
t95 39.5t94.5 -39.5t39 -94.5t-39 -94.5t-94.5 -39.5zM511.5 167q-39.5 0 -67.5 -28t-28 -67t28 -67t67.5 -28t67.5 28t28 67t-28 67t-67.5 28zM512 65h-1h-1q-116 0 -213 66q-88 60 -133 157q-42 6 -71 37q-34 35 -34 85q0 38 21.5 69.5t56.5 44.5q26 129 127 215
q51 43 113 67q64 24 133 24h1h2q69 0 133 -24q62 -24 113 -67q100 -86 127 -215q35 -13 56.5 -44.5t21.5 -69.5q0 -50 -34 -85q-29 -31 -71 -37q-45 -97 -134 -157q-96 -66 -212 -66h-1zM511 791q-126 0 -221 -80.5t-117 -204.5q-2 -12 -14 -15q-27 -8 -44.5 -30.5
t-17.5 -50.5q0 -34 23.5 -58.5t57.5 -25.5q12 -1 17 -12q40 -96 126 -153t190 -57v0h1q104 0 189.5 57t126.5 153q4 11 17 12q34 1 57 25.5t23 58.5q0 28 -17 50.5t-44 30.5q-12 3 -14 15q-22 124 -117.5 204.5t-220.5 80.5h-1zM521 596q-24 0 -50.5 10t-36.5 16t-16 11
l-2 2q-41 44 -30 89q10 43 67 79q27 17 52 26q8 3 15 -0.5t10 -11t-0.5 -15t-10.5 -10.5q-27 -10 -58 -31t-37 -46q-6 -24 19 -52q49 -35 90 -27q29 5 48 35q4 8 5 17q1 17 -18 31q-20 17 -39 11q-17 -6 -22 -23q-2 -7 -9.5 -11t-15 -1.5t-11.5 9.5t-1 14q11 37 48 49
q38 12 74 -17q36 -28 32 -67q-1 -18 -10 -33q-29 -45 -74 -53q-10 -1 -19 -1zM318 482.5q0 14.5 9 25t22.5 10.5t22.5 -10.5t9 -25t-9 -25t-22.5 -10.5t-22.5 10.5t-9 25zM648 482.5q0 14.5 9 25t22.5 10.5t22.5 -10.5t9 -25t-9 -25t-22.5 -10.5t-22.5 10.5t-9 25z" />
    <glyph glyph-name="uniE60E" unicode="&#xe60e;" 
d="M858 767h-693q-41 0 -70 -29t-29 -70v-446q0 -41 29 -70t70 -29h75v-99q0 -10 7 -17.5t17.5 -7.5t17.5 7.5t7 17.5v99h446v-99q0 -10 7 -17.5t17.5 -7.5t17.5 7.5t7 17.5v99h74q41 0 70 29t29 70v446q0 41 -29 70t-70 29zM908 222q0 -20 -14.5 -34.5t-35.5 -14.5h-693
q-20 0 -34.5 14.5t-14.5 34.5v446q0 20 14.5 34.5t34.5 14.5h693q21 0 35.5 -14.5t14.5 -34.5v-446zM594 665h-297q-41 0 -70 -29.5t-29 -69.5v-248q0 -41 29 -70t70 -29h297q41 0 70 29t29 70v248q0 40 -29 69.5t-70 29.5zM644 318q0 -21 -14.5 -35.5t-35.5 -14.5h-297
q-20 0 -34.5 14.5t-14.5 35.5v248q0 20 14.5 34.5t34.5 14.5h297q21 0 35.5 -14.5t14.5 -34.5v-248zM792.5 309q10.5 0 17.5 7.5t7 17.5v303q0 10 -7 17t-17.5 7t-17.5 -7t-7 -17v-303q0 -10 7 -17.5t17.5 -7.5zM793 275q-10 0 -17.5 -7.5t-7.5 -17.5t7.5 -17.5t18 -7.5
t17.5 7.5t7 17.5t-7 17.5t-18 7.5z" />
    <glyph glyph-name="uniE60F" unicode="&#xe60f;" 
d="M267 386h87q7 0 12 3t8 8.5t3 10.5q0 11 -7 17.5t-16 6.5h-87q-4 0 -8.5 -2t-7.5 -5t-5 -7t-2 -10q0 -2 0.5 -4.5t2 -5t2.5 -4.5t3 -2l6 -4q2 -1 4 -1.5t5 -0.5zM479 255h-212q-9 0 -16 -7t-7 -16q0 -5 2 -9t5 -7.5t7.5 -5.5t8.5 -2h212q10 0 16.5 7t6.5 16.5t-6.5 16.5
t-16.5 7zM479 345h-212q-9 0 -16 -6.5t-7 -16.5t7 -16.5t16 -6.5h212q10 0 16.5 6.5t6.5 16.5t-6.5 16.5t-16.5 6.5zM885 774q-20 0 -36.5 10t-25.5 22.5t-16.5 29t-9.5 23.5t-3 13q-2 7 -6.5 12.5t-11.5 8.5t-15 1q-12 2 -21 -4.5t-12 -18.5q-1 -6 -3 -12.5t-9.5 -23
t-17 -29t-25.5 -22.5t-36 -10q-11 0 -19.5 -7.5t-9.5 -18.5q-1 -6 0.5 -11t5 -9.5t7.5 -7.5t10 -4q20 -4 47 -25q50 -41 50 -114q0 -7 3.5 -14t10.5 -10.5t15 -3.5h8q12 0 21 8t9 20q0 24 5 44t13 33.5t19 25t19.5 17.5t18.5 11l14 6q4 1 7 2q12 2 18.5 11t5 20.5t-10 19
t-19.5 7.5zM761 682q-18 33 -48 57q7 5 14 11.5t13.5 14t11.5 15t9 14.5q6 -10 13 -20t16.5 -19t19.5 -16q-31 -24 -49 -57zM610 394q-14 0 -24 -9.5t-10 -23.5v-254q0 -25 -23.5 -48.5t-47.5 -23.5h-257q-24 0 -48 23.5t-24 48.5v306q0 40 19.5 78t52.5 66l2 2
q55 45 117 45h19q42 0 82.5 -23t67.5 -64q2 -6 6 -11t8.5 -8.5t10.5 -5t13 -1.5t14.5 2.5t12.5 8t8.5 12.5t3.5 16q0 15 -10 26q-1 3 -3 5q-60 74 -143 92q8 19 8 36q0 18 -8 35t-21 29t-31 19v65h40q3 0 6 2t8.5 10t5.5 17q-1 13 -9.5 21.5t-20.5 8.5h-118q-12 0 -37 -8
q-22 -9 -33 -14t-21 -12t-27 -20q-8 -7 -12 -10t-8.5 -8t-6 -8.5t-1.5 -8.5q0 -2 0.5 -5t1.5 -5l2 -6q1 -1 2.5 -3t3.5 -3.5t4.5 -3t4.5 -2.5t5 -1.5t5 -0.5q3 0 5 0.5t4 1.5l8 4h1q55 50 129 53v-64q-27 -10 -43 -32.5t-16 -50.5q0 -19 6 -36q-94 -20 -147 -104
q-37 -58 -38 -127v-342q0 -49 35 -83.5t84 -34.5h296q50 0 84.5 34.5t34.5 83.5v281q0 9 -4.5 16.5t-12 12t-16.5 4.5zM377 732q7 0 17.5 -7.5t18 -17.5t7.5 -18q0 -6 -5 -13t-11.5 -12.5t-14 -9.5t-12.5 -4q-14 0 -28.5 13.5t-14.5 25.5t15 27.5t28 15.5z" />
    <glyph glyph-name="uniE610" unicode="&#xe610;" 
d="M1016 499l8 2v159q0 46 -32 77t-77 31h-804q-46 0 -78.5 -31t-32.5 -77v-159l8 -2q44 -5 72.5 -38.5t28.5 -76.5t-28.5 -76.5t-72.5 -38.5l-8 -2v-159q0 -46 32.5 -77t78.5 -31h804q45 0 77 31t32 77v159l-8 2q-43 5 -72 38.5t-29 77t29 76.5t72 38zM851 384
q0 -54 30 -100t79 -69v-107q0 -17 -14 -30.5t-31 -13.5h-804q-18 0 -32.5 13.5t-14.5 30.5v107q49 23 79 69t30 100t-30 100t-79 69v107q0 17 14.5 30.5t32.5 13.5h804q17 0 31 -13.5t14 -30.5v-107q-49 -23 -79 -69t-30 -100zM638 512h-251q-15 0 -25 -9t-10 -23t10 -23
t25 -9h251q15 0 25 9t10 23t-10 23t-25 9zM638 320h-251q-15 0 -25 -9t-10 -23t10 -23t25 -9h251q15 0 25 9t10 23t-10 23t-25 9z" />
    <glyph glyph-name="uniE611" unicode="&#xe611;" 
d="M692 -88q-11 -6 -26.5 -12.5t-62 -17t-91.5 -10.5q-44 0 -90 10.5t-63 17.5t-26 11q-13 7 -13 21v396q0 12 9.5 19t20.5 3h1v248q0 10 7 16.5t17 6.5h1v207q0 12 10 19l62 45q15 10 29 -2l163 -137q8 -7 8 -18v-114h1q10 0 17 -6.5t7 -16.5v-248q1 1 2 1q11 3 20 -4
t9 -19v-396q0 -14 -12 -20zM601 724l-141 119l-37 -27v-195h178v103zM625 575h-226v-232q62 -15 116 -15q37 0 82 7q16 3 28 7v233zM657 298q-25 -5 -53 -9q-33 -6 -71 -7h-1q-14 -1 -15 -1h-1h-2h-1h-1q-72 0 -145 17v-350q71 -29 145 -29q76 0 145 28v351zM443.5 370
q-7.5 0 -12.5 5t-5 12v156q0 7 5 12t12.5 5t12.5 -5t5 -12v-156q0 -7 -5 -12t-12.5 -5z" />
    <glyph glyph-name="uniE612" unicode="&#xe612;" 
d="M946 815q-73 72 -175.5 72t-175.5 -72l-515 -516q-73 -72 -73 -175t73 -175.5t175.5 -72.5t175.5 72l515 516q73 72 73 175t-73 176zM411 -31q-65 -65 -156 -65t-155 64.5t-64 155.5t64 155l248 248l310 -311zM926 484l-248 -248l-310 311l247 248q65 64 156 64
t155 -64.5t64 -155.5t-64 -155zM307.5 337q9.5 0 15.5 7q7 7 7 16t-7 16q-6 6 -15.5 6t-16 -6.5t-6.5 -15.5t6 -16q7 -7 16.5 -7zM199 284q-6 -7 -6 -16.5t6.5 -16t16 -6.5t16 7t6.5 16t-7 16q-6 6 -15.5 6t-16.5 -6zM107.5 191.5q-6.5 -6.5 -6.5 -15.5t6.5 -16t16 -7
t15.5 7q7 7 7 16t-7 16q-6 6 -15.5 6t-16 -6.5zM507 192q-6 6 -15.5 6t-16 -6.5t-6.5 -15.5t6.5 -16t16 -7t15.5 7q7 7 7 16t-7 16zM384 100q-7 -7 -7 -16.5t6.5 -16t16 -6.5t15.5 7q7 6 7 15.5t-7 16.5q-6 6 -15.5 6t-15.5 -6zM291 8q-6 -7 -6 -16.5t6 -15.5q7 -7 16.5 -7
t15.5 7q7 6 7 15.5t-6.5 16t-16 6.5t-16.5 -6zM425 325q-7 -7 -7 -16t7 -16q6 -6 15.5 -6t16.5 6q6 7 6 16t-7 16q-6 6 -15.5 6t-15.5 -6zM371 240q-6 6 -15.5 6t-16.5 -6q-7 -7 -7 -16.5t7 -15.5q7 -7 16 -7t16 6.5t7 16t-7 16.5zM292 138q0 9 -7 16q-6 6 -15.5 6t-16 -6.5
t-6.5 -15.5t6.5 -16t16 -7t16 7t6.5 16zM168 69q-7 -7 -7 -16.5t7 -15.5q6 -7 15.5 -7t16.5 7q6 6 6 15.5t-6 16.5q-7 6 -16.5 6t-15.5 -6zM875 534l-193 -193q-10 -10 0 -20q4 -4 10 -4t10 4l193 192q10 10 0 20.5t-20 0.5zM957 659q-1 6 -5.5 9.5t-10 3.5t-9.5 -4.5
t-4 -10.5q2 -28 -3 -50.5t-9 -29t-7 -9.5q-10 -10 0 -20q5 -4 10.5 -4t10 4t10 12t12.5 36.5t5 62.5z" />
    <glyph glyph-name="uniE613" unicode="&#xe613;" 
d="M962 399q0 -44 -29.5 -76.5t-73.5 -37.5q-36 -113 -132 -182.5t-215 -69.5t-215 69.5t-132 182.5q-44 5 -73.5 37.5t-29.5 76.5t29.5 77t73.5 37q33 100 115 168t186 81q13 2 23.5 -6t12 -21t-6.5 -23t-21 -12q-92 -11 -162.5 -73.5t-93.5 -152.5l-6 -27l-28 4h-7
q-21 0 -36.5 -15t-15.5 -37q0 -23 17.5 -38.5t39.5 -13.5l27 4l9 -27q26 -101 108 -164.5t186 -63.5t186 63.5t108 164.5l6 27l28 -3q6 -1 7 -1q21 0 36.5 15.5t15.5 36.5q0 23 -17.5 39t-39.5 13l-27 -4l-9 27q-18 70 -66 124.5t-114 81.5q-12 5 -17 17t-0.5 24t16.5 17
t24 0q75 -30 130 -89t80 -136q44 -4 73.5 -37t29.5 -77zM324 441q0 -26 18.5 -44.5t44.5 -18.5t44 18.5t18 44.5t-18 44.5t-44 18.5t-44.5 -18.5t-18.5 -44.5zM637 378q26 0 44.5 18.5t18.5 44.5t-18.5 44.5t-44.5 18.5t-44 -18.5t-18 -44.5t18 -44.5t44 -18.5zM554 661
q7 0 13 3q12 5 16.5 17t-1.5 24q-15 34 -5 59q7 16 29 24q13 4 18.5 16t1 24t-16.5 17.5t-24 1.5q-49 -18 -66 -60q-7 -17 -8 -36t3 -35t6.5 -24t4.5 -13q9 -18 29 -18z" />
    <glyph glyph-name="uniE614" unicode="&#xe614;" horiz-adv-x="1026" 
d="M945 816q-80 80 -193 80t-193 -80l-478 -478q-80 -80 -80 -193t80 -193t193 -80t193 80l478 478q80 80 80 193t-80 193zM401 18q-52 -53 -126.5 -53t-127.5 53t-53 127.5t53 126.5l195 195q26 -17 53.5 -38t66 -54t74.5 -75.5t61 -86.5zM879 496l-223 -223
q-85 138 -256 253l225 224q52 53 126.5 53t127.5 -53t53 -127.5t-53 -126.5zM647 632q12 -12 12 -28.5t-12 -28.5l-56 -56q-12 -12 -29 -12t-29 12t-12 29t12 29l56 55q12 12 29 12t29 -12zM740.5 726q13.5 -14 13.5 -33t-13.5 -32.5t-33 -13.5t-33 13.5t-13.5 32.5t13.5 33
t33 14t33 -14z" />
    <glyph glyph-name="uniE615" unicode="&#xe615;" 
d="M858 767h-693q-41 0 -70 -29t-29 -70v-446q0 -41 29 -70t70 -29h75v-99q0 -10 7 -17.5t17.5 -7.5t17.5 7.5t7 17.5v99h446v-99q0 -10 7 -17.5t17.5 -7.5t17.5 7.5t7 17.5v99h74q41 0 70 29t29 70v446q0 41 -29 70t-70 29zM908 222q0 -20 -14.5 -34.5t-35.5 -14.5h-693
q-20 0 -34.5 14.5t-14.5 34.5v446q0 20 14.5 34.5t34.5 14.5h693q21 0 35.5 -14.5t14.5 -34.5v-446zM594 665h-297q-41 0 -70 -29.5t-29 -69.5v-248q0 -41 29 -70t70 -29h297q41 0 70 29t29 70v248q0 40 -29 69.5t-70 29.5zM644 318q0 -21 -14.5 -35.5t-35.5 -14.5h-297
q-20 0 -34.5 14.5t-14.5 35.5v248q0 20 14.5 34.5t34.5 14.5h297q21 0 35.5 -14.5t14.5 -34.5v-248zM792.5 309q10.5 0 17.5 7.5t7 17.5v303q0 10 -7 17t-17.5 7t-17.5 -7t-7 -17v-303q0 -10 7 -17.5t17.5 -7.5zM793 275q-10 0 -17.5 -7.5t-7.5 -17.5t7.5 -17.5t18 -7.5
t17.5 7.5t7 17.5t-7 17.5t-18 7.5z" />
    <glyph glyph-name="uniE616" unicode="&#xe616;" 
d="M895 462h-227l-132 290q-8 14 -12 19.5t-13.5 15.5t-22.5 13.5t-31 3.5q-11 0 -18 -0.5t-20 -4.5t-20.5 -11.5t-13.5 -23.5t-6 -39l26 -263l-188 1l-66 109q-13 23 -35 22q-2 -1 -8 0t-13 -0.5t-13.5 -3.5t-11 -8.5t-4.5 -15.5l23 -182l-23 -181q0 -17 12 -23t38 -6
q9 0 15.5 3t8.5 6l10 15l67 107l187 1l-26 -263q0 -22 6 -38t13.5 -23.5t20.5 -12t20 -5t19 -0.5q17 0 30 4t22.5 14t13.5 15.5t12 19.5l133 289h227q35 1 62 23t27 54.5t-27 55.5t-62 23zM900 348h-266l-140 -301q-7 -12 -18 -21t-19 -9q-34 0 -32 29l45 301h-285l-69 -121
q0 9 5 48.5t10 75.5l5 37q0 1 -5 36t-10 73t-5 45l67 -115l287 -3l-45 300q-1 9 7 19t25 10q8 0 19 -9.5t17 -21.5l141 -299l266 -3q14 0 25.5 -11.5t11.5 -24t-11.5 -24t-25.5 -11.5z" />
    <glyph glyph-name="uniE617" unicode="&#xe617;" 
d="M64 620h128v-768h-128v768zM768 684h128v-704h-128v704zM896 -20v-128l-256 128h256zM448 684h320v-64h-320v64zM448 300l64 256l-256 -384h256l-64 -256l256 384h-256zM384 620h-128l-64 128h128z" />
    <glyph glyph-name="uniE618" unicode="&#xe618;" 
d="M410 786q0 11 -7.5 18.5t-18.5 7.5t-18.5 -7.5t-7.5 -18.5q0 -67 24 -167q6 -28 8.5 -42t3 -29t-5.5 -22q-14 -18 -81 -21v25v205q0 11 -7.5 18.5t-18 7.5t-18 -7.5t-7.5 -18.5v-205v-25q-67 3 -81 21q-5 7 -5 22.5t2.5 29t9.5 41.5q23 101 23 167q0 11 -7.5 18.5
t-18 7.5t-18 -7.5t-7.5 -18.5q0 -60 -22 -155q-9 -37 -12 -55.5t-0.5 -42t15.5 -39.5q29 -36 120 -40q-6 -143 -44 -367q-11 -65 -15.5 -95.5t-7 -71t3.5 -64t20 -40.5q24 -28 70 -28t70 28q14 17 20 40.5t3 64t-7.5 71t-15.5 95.5q-37 224 -43 367q91 4 120 40
q12 16 14.5 39.5t-0.5 41.5t-11 55q-22 95 -22 156zM313 -150q-9 -11 -31.5 -11t-30.5 11q-9 9 -11.5 29.5t1.5 56.5t7.5 62.5t12.5 79.5q14 78 21 127q6 -45 20 -127q9 -53 13 -79.5t7.5 -62.5t1 -56.5t-10.5 -29.5zM813 87q-14 83 -21.5 133.5t-15.5 139.5t-8 170v256
q0 20 -19 25t-29 -12q-29 -51 -55.5 -118t-43.5 -121t-31.5 -112.5t-19 -80.5t-6.5 -37q-3 -12 5 -21t20 -9h114q-9 -80 -31 -213q-11 -65 -15.5 -95.5t-7.5 -71t3 -64t20 -39.5q24 -29 70 -29t70 29q14 16 20 39.5t3.5 64t-7 71t-15.5 95.5zM620 351q39 184 97 324v-145
q0 -87 -9 -179h-88zM773 -150q-8 -11 -30.5 -11t-31.5 11q-8 9 -10.5 29.5t1 56.5t7.5 62.5t13 79.5q13 78 20 127q7 -46 21 -127q9 -53 13 -79.5t7.5 -62.5t1 -56.5t-11.5 -29.5z" />
    <glyph glyph-name="uniE619" unicode="&#xe619;" 
d="M349 626h387q13 0 22.5 -9t9.5 -21v-614q0 -13 -9.5 -22t-22.5 -9h-108v-46h201q23 0 39 15.5t16 37.5v660q0 22 -16 38t-40 16h-479v-46zM256 -95v581h-116v-581h116zM140 695v-162h116v162h-116zM442 509h140l-70 -232h-163zM512 393h186l-279 -396z" />
    <glyph glyph-name="uniE61A" unicode="&#xe61a;" 
d="M735 518h-89v89q0 9 -6.5 15.5t-16 6.5t-16 -6.5t-6.5 -15.5v-89h-312q-9 0 -15.5 -6.5t-6.5 -16t6.5 -16t15.5 -6.5h281l-269 -269q-7 -7 -7 -16t6.5 -15.5t15.5 -6.5t16 7l269 269v-281q0 -9 6.5 -15.5t16 -6.5t16 6.5t6.5 15.5v312h89q9 0 15.5 6.5t6.5 16t-6.5 16
t-15.5 6.5zM757 718h-490q-37 0 -63 -26t-26 -63v-490q0 -37 26 -63t63 -26h490q37 0 63 26t26 63v490q0 37 -26 63t-63 26zM801 139q0 -18 -13 -31t-31 -13h-490q-18 0 -31 13t-13 31v490q0 18 13 31t31 13h490q18 0 31 -13t13 -31v-490z" />
    <glyph glyph-name="uniE61B" unicode="&#xe61b;" 
d="M825 86q7 38 7 81q0 90 -29 177q0 2 -1 3q-47 144 -142 203q2 2 3 4q22 56 70 87q6 3 4.5 10.5t-8.5 7.5q-48 5 -84 -11q-6 -2 -11 2t-4 10q5 48 38 91q4 6 -0.5 12t-11.5 3q-37 -13 -56 -29q-6 -4 -12 -1t-6 10q-2 68 30 134q3 7 -2.5 12t-11.5 2q-16 -10 -46 -30l-2 -1
q-14 -9 -21 -14q-6 -3 -12 0q-7 5 -23 15q-29 20 -45 30q-7 3 -12.5 -2t-2.5 -12q33 -66 31 -134q0 -7 -6.5 -10t-11.5 1q-20 16 -57 29q-7 3 -11.5 -3t0.5 -12q33 -44 38 -91q0 -7 -5 -10.5t-11 -1.5q-36 15 -83 11q-7 0 -9 -7.5t4 -10.5q45 -29 68 -80q-77 -38 -128 -135
q-2 -2 -2 -3q-37 -72 -52 -157q-1 -1 -1 -2q-8 -49 -8 -97q0 -122 52 -200q57 -87 162 -94q2 -1 4 -1h2h13h175q119 0 182 95q32 50 45 119zM594 -108l-51 52l88 91l96 -97q-52 -46 -129 -46h-4zM565 -108h-72l36 37zM528 -42l-101 101l89 91l100 -101zM218 81q-3 18 -5 36
q1 1 2 1l62 63l121 -122l-76 -77l-96 96q-3 3 -8 3zM210 167q0 37 5 75l47 -47l-51 -51q-1 11 -1 23zM263 403l103 -104l-89 -90l-58 58q14 73 44 136zM291 195l90 90l120 -121l-89 -90zM465 560h91h9v-1l31 -30l-104 -104l-113 112q41 23 86 23zM598 555q9 -2 18 -6l-6 -6z
M610 514l118 -120l-102 -103l-120 119zM612 276l-96 -97l-121 120l97 97zM530 164l96 98l99 -99l-95 -99zM641 276l101 104l42 -43q14 -44 21 -91l-66 -68zM767 384l-10 10l3 4q4 -7 7 -14zM808 220q3 -27 3 -53q0 -30 -3 -58l-54 54zM751 417q-1 0 -1 -1l-8 -7l-118 119
l12 12q68 -35 115 -123zM349 639q25 -1 45 -9q16 -7 30.5 3.5t12.5 28.5q-4 38 -23 72q12 -6 20 -13q15 -12 33 -4t18 28q2 58 -19 114q6 -4 17 -12q16 -10 23 -15q17 -11 34 0q7 4 21 14l2 1q12 8 17 12q-21 -57 -19 -114q1 -20 18.5 -28t33.5 4q8 7 19 13q-19 -34 -23 -72
q-1 -18 13 -28.5t31 -3.5q20 8 45 9q-36 -31 -54 -77q0 -1 -1 -3l-4 2q0 1 -1 1q-39 19 -82 19h-91q-34 0 -66 -12q-18 41 -50 70zM362 526l116 -116l-97 -96l-108 108q37 68 89 104zM259 -21q-21 30 -33 70l82 -81l-22 -22q-15 14 -27 33zM322 -47l57 -56q-44 9 -78 35z
M411 -107l-75 75l76 77l102 -102l-49 -51h-42q-6 0 -12 1zM763 -21q-10 -15 -21 -27l-97 98l95 98l64 -64q-12 -61 -41 -105z" />
    <glyph glyph-name="uniE61C" unicode="&#xe61c;" 
d="M886 597q0 50 -23.5 101.5t-66 86.5t-89.5 35t-88.5 -34t-64 -85t-22.5 -102q0 -66 32.5 -136t80.5 -99l-12 -330q0 -32 25 -56t59 -24q33 0 55.5 23.5t22.5 58.5l-18 328q48 29 78.5 97t30.5 136zM737 410q-21 -8 -20 -30l19 -346q0 -9 -5.5 -15t-13.5 -6
q-10 0 -17.5 6.5t-7.5 13.5l13 348q1 22 -20 29q-32 11 -63 70t-31 119q0 57 35.5 109.5t80.5 52.5q46 0 83 -54t37 -110q0 -62 -29 -119t-61 -68zM491 528l-17 258q0 13 -9.5 21t-21.5 7t-20 -10t-7 -21l14 -234h-86q1 2 1 4l-1 231q0 13 -8.5 21.5t-20.5 8.5t-21 -8.5
t-9 -21.5l1 -231v-4h-86l14 234q1 12 -7 21t-20.5 10t-21.5 -7t-10 -21l-16 -258q-1 -4 -1 -9v-5v-7q0 -54 30 -96.5t75 -54.5l-13 -308q-2 -44 27 -74q24 -26 58 -26t58 26q29 30 27 74l-13 308q39 10 67 43q38 46 38 110v5v5q0 4 -1 9zM356 411q-12 0 -21 -9t-8 -22
l14 -335q1 -19 -11 -31q-7 -7 -15.5 -7t-15.5 7q-11 12 -10 31l14 335q1 13 -8 22t-21 9q-28 0 -49.5 22.5t-26.5 56.5h234q-5 -31 -23 -52q-22 -27 -53 -27z" />
    <glyph glyph-name="uniE61D" unicode="&#xe61d;" 
d="M735 518h-89v89q0 9 -6.5 15.5t-16 6.5t-16 -6.5t-6.5 -15.5v-89h-312q-9 0 -15.5 -6.5t-6.5 -16t6.5 -16t15.5 -6.5h281l-269 -269q-7 -7 -7 -16t6.5 -15.5t15.5 -6.5t16 7l269 269v-281q0 -9 6.5 -15.5t16 -6.5t16 6.5t6.5 15.5v312h89q9 0 15.5 6.5t6.5 16t-6.5 16
t-15.5 6.5zM757 718h-490q-37 0 -63 -26t-26 -63v-490q0 -37 26 -63t63 -26h490q37 0 63 26t26 63v490q0 37 -26 63t-63 26zM801 139q0 -18 -13 -31t-31 -13h-490q-18 0 -31 13t-13 31v490q0 18 13 31t31 13h490q18 0 31 -13t13 -31v-490z" />
    <glyph glyph-name="uniE61E" unicode="&#xe61e;" 
d="M661 532q0 146 52 257q5 9 1.5 18.5t-12.5 13.5q-19 9 -31 -5q-57 -58 -102 -131q-8 41 -21.5 76t-24 52.5t-29.5 44.5q-14 22 -16 26q-10 17 -30 11q-10 -3 -15 -11t-3 -18q23 -96 10 -181q-45 75 -102 131q-14 14 -31 5q-9 -4 -12.5 -13.5t0.5 -18.5q23 -48 37 -107
t17 -92.5t3 -60.5q-57 -26 -90 -71t-33 -97v-238q0 -81 75.5 -138.5t182.5 -57.5h44q79 0 143 33q54 28 84.5 71.5t30.5 92.5v237q1 54 -34 99.5t-94 71.5zM338 249l-74 -63v128zM388 248l120 103l124 -112l-121 -104zM488 528h44q60 0 108 -21l-132 -113l-125 114
q47 20 105 20zM681 239l74 62v-129zM755 361v-17l-98 -84l-124 112l138 119q39 -24 61.5 -57.5t22.5 -72.5zM626 544q-42 12 -81 13q43 109 118 199q-37 -99 -37 -212zM474 827q25 -38 41.5 -80t26.5 -111q-22 -45 -35 -78h-6q-14 41 -35 81q5 14 9 35t6 64t-7 89zM347 756
q75 -90 118 -199q-40 -3 -77 -14q-4 113 -41 213zM354 494l-2 -2l132 -119l-121 -103l-96 86l-4 -2v8q1 40 25.5 74.5t65.5 57.5zM264 124v23l3 -2l94 81l125 -112l-139 -119q-39 23 -61 57t-22 72zM488 -42q-57 0 -109 22l132 113l127 -114q-50 -21 -106 -21h-44zM668 -7
l-132 120l121 103l98 -89v-3q0 -38 -23 -73t-64 -58zM519 210q22 0 31.5 18t0 36t-31.5 18t-31.5 -18t0 -36t31.5 -18v0zM511 438q22 0 31 18t0 35.5t-31.5 17.5t-31.5 -17.5t0 -35.5t32 -18v0zM508 -17q13 0 22.5 7.5t11.5 17.5t0 20.5t-11.5 18t-22.5 7.5q-23 0 -32 -18
t0 -35.5t32 -17.5v0zM661 341q23 0 32 18t0 35.5t-31.5 17.5t-31.5 -17.5t0 -35.5t31 -18v0zM661 85q23 0 32 18t0 35.5t-32 17.5q-9 0 -17 -3.5t-12 -10t-5.5 -14t0 -15t5.5 -14t12 -10.5t17 -4v0zM371 341q23 0 32 18t0 35.5t-31.5 17.5t-32 -17.5t0 -35.5t31.5 -18v0z
M380 85q13 0 22.5 7.5t11.5 18t0 21t-11.5 17.5t-22.5 7q-10 0 -17.5 -3.5t-11.5 -10t-6 -14t0 -15t6 -14t11.5 -10.5t17.5 -4v0z" />
    <glyph glyph-name="uniE61F" unicode="&#xe61f;" 
d="M844 752h-61q-13 0 -24 -7.5t-11 -19.5t11.5 -22.5t23.5 -10.5h61q26 0 43 -17t17 -43v-693q0 -27 -17 -43.5t-43 -16.5h-648q-29 0 -52.5 17t-23.5 43v693q0 26 17 43t43 17h76q23 0 23 33q0 27 -23 27h-76q-60 0 -90 -33.5t-30 -88.5v-685q0 -57 33.5 -91.5t93.5 -34.5
h650q62 0 94.5 32t32.5 94v685q0 54 -32 88t-88 34zM256 480.5q0 -12.5 9 -21.5t22 -9h452q12 0 21 9t9 21.5t-9 21.5t-21 9h-452q-13 0 -22 -9t-9 -21.5zM737 345h-450q-13 0 -22 -9t-9 -21.5t9 -22t22 -9.5h452q12 0 21 9.5t9 21.5q-1 13 -10 22t-22 9zM737 164h-450
q-13 0 -22 -9t-9 -21.5t9 -21.5t22 -9h452q12 0 21 9t9 22q-1 13 -10 21.5t-22 8.5zM408 676h210q18 0 31.5 16t13.5 37t-13.5 36.5t-32.5 15.5h-209q-19 0 -32.5 -15.5t-13.5 -36.5t13.5 -37t32.5 -16z" />
    <glyph glyph-name="uniE620" unicode="&#xe620;" 
d="M792 637h-84v56h-75q-19 25 -51 40.5t-70 15.5t-70 -15.5t-51 -40.5h-75v-56h-84q-46 0 -79 -33t-33 -79v-560q0 -47 33 -79.5t79 -32.5h560q46 0 79 32.5t33 79.5v560q0 46 -33 79t-79 33zM372 637h62q0 23 23 39.5t55 16.5t55 -16.5t23 -39.5h62v-112h-280v112z
M848 -35q0 -24 -16.5 -40t-39.5 -16h-560q-23 0 -39.5 16t-16.5 40v560q0 23 16.5 39.5t39.5 16.5h84v-112h392v112h84q23 0 39.5 -16.5t16.5 -39.5v-560zM708 77h-392q-12 0 -20 -8.5t-8 -20t8 -19.5t20 -8h392q12 0 20 8t8 19.5t-8 20t-20 8.5zM708 357h-392
q-12 0 -20 -8.5t-8 -20t8 -19.5t20 -8h392q12 0 20 8t8 19.5t-8 20t-20 8.5zM708 217h-392q-12 0 -20 -8.5t-8 -20t8 -19.5t20 -8h392q12 0 20 8t8 19.5t-8 20t-20 8.5z" />
    <glyph glyph-name="uniE621" unicode="&#xe621;" 
d="M374 45q-40 0 -68 -28t-28 -67.5t28 -67.5t68 -28t68 28t28 67.5t-28 67.5t-68 28zM374 -104q-22 0 -37.5 16t-15.5 38t15.5 37.5t37.5 15.5t37.5 -15.5t15.5 -37.5t-15.5 -38t-37.5 -16zM215 620l-22 128h-128v-43h89l103 -596h596v43h-557l-12 66l569 61l106 298v43
h-744zM831 322l-554 -62l-55 317h688zM735.5 45q-39.5 0 -67.5 -28t-28 -67.5t28 -67.5t67.5 -28t67.5 28t28 67.5t-28 67.5t-67.5 28zM736 -104q-22 0 -38 16t-16 38t16 37.5t38 15.5t37.5 -15.5t15.5 -37.5t-15.5 -38t-37.5 -16z" />
    <glyph glyph-name="uniE622" unicode="&#xe622;" 
d="M825 203l146 333q5 13 -2.5 24.5t-21.5 11.5h-619l-23 104q-1 9 -8 14.5t-17 5.5h-203q-11 0 -18.5 -7.5t-7.5 -18t7.5 -18t18.5 -7.5h183l116 -540q-31 -9 -51.5 -35.5t-20.5 -59.5q0 -42 29.5 -71t70.5 -29t70 29t29 71q0 25 -13 48h198q-13 -23 -13 -48q0 -42 29 -71
t70.5 -29t70.5 29t29 70.5t-29 70.5t-70 29h-4h-3h-341v1v2l-16 76h391q17 0 23 15zM403.5 -52q-25.5 0 -43 18t-17.5 43.5t17.5 43.5t43 18t43.5 -18t18 -43.5t-18 -43.5t-43.5 -18zM836 9.5q0 -25.5 -18 -43.5t-43.5 -18t-43.5 18t-18 43.5t18 43.5t43.5 18t43.5 -18
t18 -43.5zM405 239l-65 282h568l-123 -282h-380z" />
    <glyph glyph-name="uniE623" unicode="&#xe623;" 
d="M455 510q-43 33 -43 85q0 45 32.5 76.5t78 31.5t77.5 -31.5t32 -76.5q0 -54 -45 -87q19 -3 41 -8q38 40 38 95q0 59 -42 100t-101.5 41t-101.5 -41t-42 -100q0 -51 33 -90q21 3 43 5zM955 245q-11 -16 -30 -26t-30.5 -9.5t-14.5 3.5q-11 120 -113 196.5t-255 76.5
q-67 0 -168 -19q-39 34 -80 34q-18 0 -36 -8q-28 -14 -33 -47q-5 -29 11 -54q-41 -38 -64 -75t-28 -88q-2 -6 -9 -6q-23 0 -35 -15t-15.5 -62t13.5 -77l2 -2q22 -19 61 -20q11 -1 17 -1.5t14 -4.5t16 -12q16 -20 53 -44q9 -6 13 -8v-2q-15 -39 -6 -71l1 -2q12 -24 73 -24
q30 0 45 7l2 1q3 -14 11 -22q9 -9 24 -10q9 -1 25 -1q13 0 39 1l5 1q19 6 23 37q16 -1 32 -1q60 0 96 8q-4 -20 2 -31q6 -8 16 -11l6 -1l3 2q3 0 15 -1q22 -2 33 -2q36 0 49 14q17 15 16 69q0 24 1 30q62 39 89.5 86t31.5 108q0 4 20.5 14.5t40 28.5t18.5 40zM737 -4
q-9 -4 -13 -14.5t-4 -19.5v-24q1 -39 -5 -44l-2 -2q-4 -3 -24 -3q-10 0 -30 1q-9 1 -11 1l1 4q6 24 -2 33q-9 11 -24 8h-2q-40 -11 -103 -11q-22 0 -44 2h-2q-17 0 -19 -26q-1 -9 -2 -13q-20 -1 -32 -1q-15 0 -20 1h-5q-2 3 -1 23q1 25 -9 32l-3 2l-2 1q-8 2 -15 5l-5 2
l-5 -1q-17 -5 -16 -30q1 -6 1 -8q-11 -2 -27 -2q-29 0 -42 6q-4 19 6 45q9 24 -1 34l-3 2q-8 5 -23 15q-32 20 -45 37q-12 13 -26.5 20t-23 8t-22.5 1q-26 1 -37 11q-9 20 -6.5 53t8.5 43q2 2 8 2q31 0 42 30l1 5q3 45 24.5 78.5t68.5 74.5l13 12l-12 13q-17 16 -13 39
q3 16 14 22q10 4 21 4q15 0 31 -8t22 -13.5t9 -8.5l6 -6l10 1q103 20 170 20q148 0 238.5 -70.5t90.5 -185.5q0 -75 -23 -119t-81 -81zM260.5 320q-20.5 0 -35.5 -14t-15 -34t15 -34t35.5 -14t35.5 14t15 34t-15 34t-35.5 14zM260.5 258q-6.5 0 -11.5 4t-5 10t5 10t11.5 4
t11.5 -4t5 -10t-5 -10t-11.5 -4zM525 528v13q20 2 29 12.5t9 19.5q0 27 -31 35q-1 1 -7 2v27q5 0 8.5 -4t3.5 -10h22q-1 28 -34 32v12h-9v-12q-15 -1 -25.5 -9.5t-10.5 -23.5q0 -22 31 -30q3 -1 5 -1v-32q-17 3 -17 20h-22q4 -35 39 -38v-13h9zM525 588q16 -4 16 -14
q0 -13 -16 -15v29zM502 625q0 12 14 12v-25q-14 4 -14 13z" />
    <glyph glyph-name="uniE624" unicode="&#xe624;" 
d="M958 403l-309 45l-137 279l-138 -279l-308 -45l223 -217l-53 -307l276 145l275 -145l-52 307zM512 93l-195 -103l37 217l-157 154l217 31l98 198l97 -198l218 -31l-158 -154l37 -217z" />
    <glyph glyph-name="uniE625" unicode="&#xe625;" 
d="M896 286l-353 356q-12 12 -28 12h-3l-1 1q-9 0 -16 -4q-9 -3 -14 -9l-319 -318q-11 -12 -11.5 -28t11.5 -27.5t28 -11.5t28 11l253 253v-693q0 -16 11.5 -27.5t28 -11.5t28 11.5t11.5 27.5v695l291 -292q11 -12 27.5 -12t28 11.5t11.5 28t-12 27.5zM944 733h-866
q-16 0 -28 11.5t-12 28t12 28t28 11.5h866q16 0 27.5 -11.5t11.5 -28t-11.5 -28t-27.5 -11.5zM944 733z" />
    <glyph glyph-name="uniE626" unicode="&#xe626;" 
d="M838 -68q10 -14 10 -28q0 -20 -14 -34t-34 -14q-16 0 -28.5 10t-16.5 25q-23 -8 -46 -15q9 -30 34 -49t57 -19q40 0 68 28t28 68q0 30 -18 55q-20 -15 -40 -27zM320 -144q-20 0 -34 14t-14 34q0 15 10 28q-26 16 -41 27q-17 -25 -17 -55q0 -40 28 -68t68 -28
q32 0 57.5 19t34.5 50q-26 7 -47 14q-4 -15 -16.5 -25t-28.5 -10zM752 720q40 0 68 -28t28 -68q0 -15 -6 -31q22 -13 41 -28q13 29 13 59q0 60 -42 102t-102 42q-47 0 -84.5 -27.5t-51.5 -71.5q23 -2 48 -7q11 26 35 42t53 16zM992 264q0 149 -126.5 254.5t-305.5 105.5
q-65 0 -129 -17l-154 17h-5q-18 0 -32 -12q-16 -15 -16 -36v-86q-46 -48 -71 -106h-73q-20 0 -34 -14t-14 -34v-144q0 -20 14 -34t34 -14h73q45 -108 157 -174t250 -66q179 0 305.5 105.5t126.5 254.5zM560 -48q-135 0 -239 68t-134 172h-107v144h107q21 75 85 134v106
l163 -17q62 17 125 17q159 0 271.5 -91.5t112.5 -220.5t-112.5 -220.5t-271.5 -91.5zM272 384q0 -20 14 -34t34 -14t34 14t14 34t-14 34t-34 14t-34 -14t-14 -34z" />
    <glyph glyph-name="uniE627" unicode="&#xe627;" horiz-adv-x="1025" 
d="M1024 498l-353 52l-159 320l-158 -320l-354 -52l256 -249l-60 -353l316 167l317 -167l-61 353zM512 142l-223 -118l43 249l-181 176l250 37l111 226l112 -226l250 -37l-181 -176l43 -249z" />
    <glyph glyph-name="uniE628" unicode="&#xe628;" 
d="M604 426q-21 18 -39 26.5t-45 8.5q-32 0 -51 -17t-19 -43q0 -25 19.5 -42.5t47.5 -29t56 -24.5t47.5 -38t19.5 -61q0 -42 -28 -69.5t-76 -33.5v-59h-37v59q-66 6 -115 46l24 30q51 -40 105 -40q38 0 58 17t20 47q0 28 -19.5 47.5t-47.5 32t-56 25.5t-47.5 35.5
t-19.5 55.5q0 39 27 65.5t71 32.5v59h37v-59q52 -5 94 -44zM512 731q117 0 216 -58t157 -157t58 -216t-58 -216t-157 -157t-216 -58t-216 58t-157 157t-58 216t58 216t157 157t216 58zM512 769q-95 0 -182 -37t-150 -100t-100 -150t-37 -182t37 -182t100 -150t150 -100
t182 -37t182 37t150 100t100 150t37 182t-37 182t-100 150t-150 100t-182 37zM857 468zM780 575zM857 468q-3 8 -11 10.5t-15.5 -1t-10.5 -11.5t1 -15q35 -71 35 -151q0 -93 -46.5 -172.5t-125.5 -125.5t-172 -46q-8 0 -14 -5.5t-6 -14t6 -14.5t14 -6q104 0 192.5 51.5
t140 140t51.5 192.5q0 89 -39 168zM512 644q140 0 240 -98q6 -6 14 -6t14 6t6 14.5t-6 14.5q-54 53 -123 81t-145 28q-8 0 -14 -6t-6 -14.5t6 -14t14 -5.5zM378 -17q-95 41 -152.5 127t-57.5 190q0 100 54.5 185t146.5 127q7 4 10 12t-0.5 15.5t-11.5 10.5t-15 -1
q-102 -47 -163 -142t-61 -207q0 -116 64 -212.5t171 -141.5q3 -1 8 -1q13 0 18 12q3 8 0 15.5t-11 10.5z" />
    <glyph glyph-name="uniE629" unicode="&#xe629;" 
d="M814 -63q-60 0 -132 56.5t-107 128.5h-126q-34 -72 -106.5 -127.5t-132.5 -55.5q-41 0 -74 31t-52 75.5t-31.5 100t-17 99.5t-4.5 79q0 98 68.5 167.5t165.5 69.5h494q97 0 165 -69t68 -167q0 -35 -4 -79t-16.5 -100t-31.5 -101t-52 -76.5t-74 -31.5zM431 177h162
q19 0 26 -18q24 -62 87.5 -114.5t107.5 -52.5q29 0 53.5 35t39.5 87.5t23 108t8 102.5q0 75 -52.5 128.5t-126.5 53.5h-494q-73 0 -126 -54.5t-53 -128.5q0 -52 8.5 -108.5t23.5 -106.5t39.5 -82.5t52.5 -32.5q45 0 108 52t87 113q7 18 26 18zM491 205h-13q-6 0 -10 4
t-4 9.5t4 9.5t10 4h13q6 0 10 -4t4 -9.5t-4 -9.5t-10 -4zM211 31q-5 0 -9 4t-4 9.5t4 9.5t9 4q30 0 86.5 57.5t75.5 107.5q4 9 13 9h50q6 0 10 -4t4 -9.5t-4 -9.5t-10 -4h-41q-25 -56 -84.5 -115t-99.5 -59zM512 510q-13 0 -21 10q-8 8 -7 19.5t10 18.5q38 31 39 65
q0 16 -13.5 28.5t-21.5 20.5t-20.5 26.5t-15.5 34.5t1.5 39.5t21.5 47.5q7 9 18 10.5t20.5 -5t11 -17.5t-4.5 -21q-19 -25 -13.5 -44.5t39.5 -50.5q33 -29 32 -70q-2 -59 -59 -106q-7 -6 -17 -6zM263.5 204q-5.5 0 -9.5 4t-4 9v192q0 6 4 10t9.5 4t9.5 -4t4 -10v-192
q0 -5 -4 -9t-9.5 -4zM354 301h-192q-6 0 -10 4t-4 9.5t4 9.5t10 4h192q6 0 10 -4t4 -9.5t-4 -9.5t-10 -4zM768.5 312q-19.5 0 -33 14t-13.5 33.5t13 32.5q14 14 34 14t33 -14q14 -13 14 -32.5t-14 -33.5t-33.5 -14zM768.5 379q-8.5 0 -14 -6t-5.5 -14t5.5 -13.5t14 -5.5
t14 5.5t5.5 13.5t-5.5 14t-14 6zM843.5 237q-19.5 0 -33 13.5t-13.5 33t14 33.5q13 14 33 14t33 -14q14 -14 14 -33.5t-14 -33t-33.5 -13.5zM844 304q-8 0 -14 -6t-6 -14t6 -13.5t14 -5.5t13.5 5.5t5.5 13.5t-5.5 14t-13.5 6zM693.5 237q-19.5 0 -33.5 13.5t-14 33t14 33.5
q13 14 33 14t34 -14q13 -14 13 -33.5t-13.5 -33t-33 -13.5zM693 304q-8 0 -13.5 -6t-5.5 -14t5.5 -14t14 -5.5t14 6t5.5 13.5t-6 14t-14 6zM768.5 162q-19.5 0 -33 13.5t-13.5 33t13 33.5q14 13 34 13t33 -13q14 -14 14 -33.5t-14 -33t-33.5 -13.5zM769 228q-8 0 -14 -5.5
t-6 -13.5t5.5 -14t14 -6t14 6t5.5 14t-5.5 13.5t-13.5 5.5z" />
    <glyph glyph-name="uniE62A" unicode="&#xe62a;" 
d="M324 547q-7 12 -7 26q0 11 5 22q-122 45 -131 27q-6 -10 -1 -38t1 -38t-5 -17t1 -14.5t10.5 -8.5t25.5 2q32 8 108 29q-4 4 -7 10zM233 355l77 -78l55 241q-15 2 -27 12zM372 573zM339 572.5q0 13.5 9.5 23.5t23.5 10t23.5 -10t9.5 -23.5t-9.5 -23t-23.5 -9.5t-23.5 9.5
t-9.5 23zM379 518l58 -241l80 78l-109 176q-13 -11 -29 -13zM553 622q-9 17 -131 -28q5 -10 5 -21q0 -21 -14 -37q75 -20 108 -28q16 -3 25 -2t11 8.5t1 14.5t-5 17t1 38t-1 38zM881 779h-738q-27 0 -46.5 -19.5t-19.5 -46.5v-658q0 -27 19.5 -46.5t46.5 -19.5h738
q27 0 46.5 19.5t19.5 46.5v658q0 27 -19.5 46.5t-46.5 19.5zM903 584h-318h-5h-2q-4 -28 -1 -38q2 -3 3 -6h5h318v-485q0 -9 -6.5 -15.5t-15.5 -6.5h-498v334l-7 28l-37 -168v-194h-196q-9 0 -15.5 6.5t-6.5 15.5v485h39h4h1l2 6q4 10 -1 38h-2h-4h-39v129q0 9 6.5 15.5
t15.5 6.5h207v-112q11 5 22.5 5t21.5 -5v112h487q9 0 15.5 -6.5t6.5 -15.5v-129z" />
    <glyph glyph-name="uniE62B" unicode="&#xe62b;" 
d="M888 544l-87 -403q-4 -22 6 -42l65 -131h-721l65 132q10 20 6 41l-86 403h752zM928 608h-832q-13 0 -22.5 -9.5t-9.5 -22.5l95 -448l-95 -192q0 -13 9.5 -22.5t22.5 -9.5h832q13 0 22.5 9.5t9.5 22.5l-96 192l96 448q0 13 -9.5 22.5t-22.5 9.5zM320 608q35 161 191 161
q158 0 194 -161h31q-10 66 -30 111t-50.5 69t-65 34t-80 10t-79 -10t-62.5 -34t-48 -68.5t-29 -111.5h28zM368 383h-128q-7 0 -11.5 -4.5t-4.5 -11t4.5 -11t11.5 -4.5h48v-144q0 -7 4.5 -11.5t11.5 -4.5t11.5 4.5t4.5 11.5v144h48q7 0 11.5 4.5t4.5 11t-4.5 11t-11.5 4.5z
M575 214l-32 76q14 5 23.5 17.5t9.5 28.5q0 19 -14 33t-34 14h-80q-20 0 -26 -6t-6 -25v-144q0 -7 4.5 -11.5t11.5 -4.5t11.5 4.5t4.5 11.5v80h61l36 -86q3 -7 9 -9.5t12 0.5t8.5 9t0.5 12zM448 352h80q7 0 11.5 -5t4.5 -11.5t-4.5 -11t-11.5 -4.5h-80v32zM720 383
q-7 0 -11.5 -4.5t-4.5 -11.5v-79h-64v79q0 7 -4.5 11.5t-11.5 4.5t-11.5 -4.5t-4.5 -11.5v-79q0 -14 9.5 -23t22.5 -9h64v-32h-80q-7 0 -11.5 -5t-4.5 -11.5t4.5 -11t11.5 -4.5h96q7 0 11.5 4.5t4.5 11.5v80v79q0 7 -4.5 11.5t-11.5 4.5z" />
    <glyph glyph-name="uniE62C" unicode="&#xe62c;" 
d="M353 66q-27 0 -45.5 -18.5t-18.5 -45t18.5 -45t45 -18.5t45 18.5t18.5 45t-18.5 45t-44.5 18.5zM798 66q-26 0 -45 -18.5t-19 -45t19 -45t45 -18.5t45 18.5t19 45t-19 45t-45 18.5zM861 98h-517q-34 0 -60.5 24t-30.5 58l-54 380l-31 178q-1 11 -10 19.5t-20 8.5h-40
q-14 0 -23 9t-9 22.5t9 22.5t23 9h40q35 0 62 -23.5t31 -58.5l31 -177l54 -382q1 -11 9.5 -19t18.5 -8h517q13 0 22.5 -9t9.5 -22.5t-9.5 -22.5t-22.5 -9zM384 225q-12 0 -21.5 8.5t-10.5 20.5q-1 14 8 24t22 10l431 32q12 0 21 8t10 19l50 287q3 18 -8 29q-6 7 -15 7h-551
q-13 0 -22.5 9.5t-9.5 22.5t9.5 22.5t22.5 9.5h551q38 0 63 -28q29 -33 23 -82l-50 -286q-4 -34 -30.5 -57.5t-60.5 -23.5l-430 -32h-2z" />
    <glyph glyph-name="uniE62D" unicode="&#xe62d;" 
d="M512 -71q-28 0 -48 17t-20 40.5t20 40.5t48 17t48 -17t20 -40.5t-20 -40.5t-48 -17zM512 12q-12 0 -21 -7.5t-9 -18t9 -18t21 -7.5t21 7.5t9 18t-9 18t-21 7.5zM269 68v661h486v-661h-486zM716 697h-408v-597h408v597zM730 -115h-436q-40 0 -69 24.5t-29 58.5v832
q0 34 29 58.5t69 24.5h436q40 0 69 -24.5t29 -58.5v-832q0 -34 -29 -58.5t-69 -24.5zM789 800q0 21 -17.5 35.5t-41.5 14.5h-436q-24 0 -41.5 -14.5t-17.5 -35.5v-832q0 -21 17.5 -35.5t41.5 -14.5h436q24 0 41.5 14.5t17.5 35.5v832zM557 773h-90q-6 0 -9.5 4.5t-3.5 10.5
t3.5 10t9.5 4h90q6 0 9.5 -4t3.5 -10t-3.5 -10.5t-9.5 -4.5z" />
    <glyph glyph-name="uniE62E" unicode="&#xe62e;" 
d="M437 376h385l123 349h-762l-22 89l-78 -29l31 -116l179 -2l113 -466h465v58h-406zM365 668h478l-83 -236h-337zM434 55zM345 54.5q0 36.5 26 62.5t62.5 26t62.5 -26t26 -62.5t-26 -62.5t-62.5 -26t-62.5 26t-26 62.5zM784 55zM695 54.5q0 36.5 26 62.5t63 26t62.5 -26
t25.5 -62.5t-25.5 -62.5t-62.5 -26t-63 26t-26 62.5z" />
    <glyph glyph-name="uniE62F" unicode="&#xe62f;" 
d="M904 77h-546h-28h-210q-23 0 -39.5 16t-16.5 40v56v56v55q35 0 59.5 25t24.5 59.5t-24.5 59t-59.5 24.5v56v56v56q0 24 16.5 40t39.5 16h210h28h546q23 0 39.5 -16t16.5 -40v-84v-28v-56q-35 0 -59.5 -24.5t-24.5 -59t24.5 -59.5t59.5 -25v-55v-84v-28q0 -24 -16.5 -40
t-39.5 -16zM904 256q-38 17 -61 51.5t-23 77t23 77t61 51.5v95q0 12 -8.5 20t-19.5 8h-504v-42q0 -5 -4 -9.5t-10 -4.5h-28q-6 0 -10 4.5t-4 9.5v42h-168q-12 0 -20 -8t-8 -20v-95q38 -17 61 -51.5t23 -77t-23 -77t-61 -51.5v-95q0 -12 8.5 -20t19.5 -8h168v42q0 5 4 9.5
t10 4.5h28q6 0 10 -4.5t4 -9.5v-42h504q11 0 19.5 8t8.5 20v95zM358 245h-28q-6 0 -10 4t-4 9v84q0 6 4 10t10 4h28q6 0 10 -4t4 -10v-84q0 -5 -4 -9t-10 -4zM358 412h-28q-6 0 -10 4.5t-4 9.5v84q0 6 4 10t10 4h28q6 0 10 -4t4 -10v-84q0 -5 -4 -9.5t-10 -4.5zM650 223
l-5 6q-14 18 -31 36l-3 3q-15 -8 -25 -14q-9 -6 -16 -13l-6 -6l-27 32l6 5q8 9 8 22v1v90l-1 -1q-14 -7 -30 -14v-97q0 -43 -36 -43q-11 0 -28 1h-7l-1 7q-1 11 -4 24l-1 10l10 -1q16 -1 23 -1q5 0 5 6v75q-12 -6 -25 -12l-10 -5l-5 45l6 2l34 14v58h-37v37h37v57h39v-57h31
v32h8h7q77 0 174 13l6 1l14 -39l-10 -1q-40 -4 -74 -6q0 -28 2 -63h83v-39h-80q7 -73 28 -100q9 -10 14 -12q0 1 1 3q3 18 5 43v11l11 -5q12 -5 21 -8l6 -1v-7q-3 -28 -6 -45q-7 -34 -34 -34t-49 31q-29 41 -37 124h-51v-87q24 14 46 26l10 6l2 -11q2 -14 4 -23l2 -6l-6 -3
q-2 -2 -5 -3q17 -15 32 -33l5 -6zM520 453v-40q10 5 21 11l10 5v24h-31zM590 427h49q-2 27 -3 60q-25 -1 -46 -2v-58z" />
    <glyph glyph-name="uniE630" unicode="&#xe630;" 
d="M82 149q16 -16 39 -16t39 16l352 352l352 -352q16 -16 39 -16t39 16q16 17 16 39.5t-16 39.5l-430 430l-430 -430q-16 -17 -16 -39.5t16 -39.5z" />
    <glyph glyph-name="uniE631" unicode="&#xe631;" 
d="M480 832q-130 0 -240.5 -64.5t-175 -175t-64.5 -240.5t64.5 -240.5t175 -175t240.5 -64.5t240.5 64.5t175 175t64.5 240.5t-64.5 240.5t-175 175t-240.5 64.5zM480 -64q-172 0 -294 122t-122 294t122 294t294 122t294 -122t122 -294t-122 -294t-294 -122zM697 589
q9 9 9 22t-9 22t-22 9t-22 -9l-174 -173l-171 171q-9 9 -21.5 9t-21.5 -9t-9 -21.5t9 -21.5l183 -183v-21h-160q-13 0 -22.5 -9.5t-9.5 -22.5t9.5 -22.5t22.5 -9.5h160v-128h-160q-13 0 -22.5 -9.5t-9.5 -22.5t9.5 -22.5t22.5 -9.5h160v-96q0 -13 9.5 -22.5t22.5 -9.5
t22.5 9.5t9.5 22.5v96h160q13 0 22.5 9.5t9.5 22.5t-9.5 22.5t-22.5 9.5h-160v128h160q13 0 22.5 9.5t9.5 22.5t-9.5 22.5t-22.5 9.5h-160v20z" />
    <glyph glyph-name="uniE632" unicode="&#xe632;" 
d="M485 599l-406 -406q-9 -9 -9 -21.5t8.5 -21.5t21 -9t21.5 9l386 386l380 -380q9 -8 21 -8t20.5 8.5t8.5 20.5t-8 21l-395 394q0 1 -5 4l-1 1q0 1 -1 2q-9 8 -21.5 8t-20.5 -8zM485 599z" />
    <glyph glyph-name="uniE633" unicode="&#xe633;" 
d="M992 484h32v184q0 41 -29.5 70.5t-71.5 29.5h-822q-42 0 -71.5 -29.5t-29.5 -70.5v-184h32q43 0 74 -30.5t31 -74t-31 -74t-74 -30.5h-32v-175q0 -41 29.5 -70.5t71.5 -29.5h822q42 0 71.5 29.5t29.5 70.5v175h-32q-43 0 -74 30.5t-31 74t31 74t74 30.5zM960 214v-114
q0 -15 -10.5 -25.5t-26.5 -10.5h-822q-16 0 -26.5 10.5t-10.5 25.5v114q59 11 98 58t39 108t-39 107.5t-98 57.5v123q0 15 10.5 25.5t26.5 10.5h822q15 0 26 -10.5t11 -25.5v-123q-59 -11 -98 -57.5t-39 -107.5t39 -108t98 -58zM643 599l-119 -119l-120 120l-45 -46
l110 -110h-106v-64h129v-58h-129v-64h129v-115h64v115h127v64h-127v58h127v64h-105l110 110z" />
    <glyph glyph-name="uniE634" unicode="&#xe634;" horiz-adv-x="1025" 
d="M987 -46h-950q-15 0 -25.5 -10.5t-10.5 -24.5t10.5 -25t25.5 -11h951q15 0 25.5 10.5t10.5 25t-11 25t-26 10.5zM36 63l168 1q15 0 26 11l582 580q10 11 10 25.5t-10 25.5l-167 168q-10 11 -25 11t-26 -11l-117 -117l-466 -463q-10 -12 -10 -25l-1 -169q0 -16 10.5 -26.5
t25.5 -10.5zM620 798l117 -117l-66 -66l-117 117zM73 253l429 428l118 -117l-430 -427l-118 -1z" />
    <glyph glyph-name="uniE635" unicode="&#xe635;" 
d="M95.5 512q-13.5 0 -23 9.5t-9.5 22.5v256q0 14 9.5 23t22.5 9h256q14 0 23 -9t9 -22.5t-9 -23t-23 -9.5h-224v-224q0 -13 -9 -22.5t-22.5 -9.5zM928.5 512q-13.5 0 -22.5 9.5t-9 22.5v224h-224q-14 0 -23 9.5t-9 23t9 22.5t23 9h256q13 0 22.5 -9t9.5 -23v-256
q0 -13 -9.5 -22.5t-23 -9.5zM928.5 -64q-13.5 0 -22.5 9.5t-9 22.5v256q0 14 9 23t22.5 9t23 -9t9.5 -23v-256q0 -13 -9.5 -22.5t-23 -9.5zM352 -64h-255q-13 0 -22.5 9t-9.5 23v256q0 13 9.5 22.5t22.5 9.5h255q13 0 22.5 -9.5t9.5 -22.5v-256q0 -14 -9.5 -23t-22.5 -9z
M129 0h191v192h-191v-192zM799 -64h-128q-13 0 -22.5 9.5t-9.5 22.5v128q0 14 9.5 23t22.5 9h128q14 0 23 -9t9 -23v-128q0 -13 -9 -22.5t-23 -9.5zM703 0h64v64h-64v-64zM927 352h-830q-13 0 -22.5 9.5t-9.5 23t9.5 22.5t22.5 9h830q14 0 23 -9t9 -22.5t-9 -23t-23 -9.5z
" />
    <glyph glyph-name="uniE636" unicode="&#xe636;" 
d="M380 66l13 217q1 16 9 29q17 27 68 107t113 179t87 137q13 20 35.5 26.5t43.5 -4.5q83 -43 214 -112q24 -12 30.5 -37.5t-7.5 -48.5q-26 -42 -132 -209t-129 -203q-10 -16 -27 -23q-5 -2 -117 -51t-159 -67q-3 -1 -92.5 -1t-182.5 0.5t-88 0.5q-13 0 -21.5 8.5t-8.5 21
t8.5 21.5t21.5 9h321zM592 506l-144 -225q-5 -7 -5 -15q-7 -118 -9 -155q-1 -17 14 -27q13 -9 29 -2q2 1 187 87q8 3 13 11q12 18 116 173.5t133 201.5q8 12 4.5 24.5t-15.5 18.5q-22 12 -90.5 42t-88.5 40q-11 5 -22 2t-17 -12l-72 -113l166 -80q12 -5 15 -17.5t-4 -23.5
q-5 -8 -15 -11t-19 2z" />
    <glyph glyph-name="uniE637" unicode="&#xe637;" horiz-adv-x="1025" 
d="M557 112h-42q-21 -92 -24 -105l-40 105h-66l-42 -175h55l23 102q1 -2 11 -27.5t20 -49.5l10 -25h29h23v1q42 169 43 174zM709 -20l-86 -3l6 26l72 1l11 43l-72 -1l6 24q6 1 34.5 1t36.5 -1l-1 42h-121l-42 -175h145zM865 -63h69l91 175h-56l-54 -110l3 110h-62l-47 -109
q0 4 -0.5 31t-0.5 53t0 25h-56l5 -175h67l42 92q-1 -17 -1 -92zM831 606v-430h64v430q0 26 -19 45t-45 19h-7q15 31 9 66.5t-31 61.5q-34 33 -80.5 33t-80.5 -33q-1 -1 -3 -4l-125 -124h-1l-125 125q-2 2 -4 3q-33 34 -80 34t-80 -34q-26 -25 -31.5 -61t9.5 -67h-8
q-26 0 -45 -19t-19 -45v-608q0 -27 19 -45.5t45 -18.5h81l16 64h-97v608h225v-430h32v430h108v-430h16h16v430h241zM282 670l-13 13l-1 1q-14 14 -14 34.5t14.5 35t35 14.5t34.5 -15q1 0 2 -1l1 -1l1 -1l79 -80h-139zM757 684q0 -1 -1 -1l-13 -13h-139l79 79l1 1l1 1l2 2
q14 14 34.5 14t35 -14.5t14.5 -34.5t-14 -34z" />
  </font>
</defs>
</svg>
